<svg xmlns="http://www.w3.org/2000/svg" width="446.198" height="288" viewBox="0 0 446.198 288">
  <g id="Group_15063" data-name="Group 15063" transform="translate(-563.118 -196.456)">
    <g id="Group_15051" data-name="Group 15051" transform="translate(586.317 218.683)">
      <rect id="Rectangle_3802" data-name="Rectangle 3802" width="421.716" height="264.49" rx="11.132" transform="translate(0.642 0.642)" fill="#fff"/>
      <path id="Path_24545" data-name="Path 24545" d="M965.968,470.895H601.356A29.225,29.225,0,0,1,572.163,441.7V234.315a29.226,29.226,0,0,1,29.193-29.193H965.968a29.226,29.226,0,0,1,29.193,29.193V441.7A29.225,29.225,0,0,1,965.968,470.895ZM601.356,206.4a27.943,27.943,0,0,0-27.911,27.911V441.7a27.943,27.943,0,0,0,27.911,27.911H965.968A27.943,27.943,0,0,0,993.879,441.7V234.315A27.943,27.943,0,0,0,965.968,206.4Z" transform="translate(-572.163 -205.122)" fill="#63c2d9"/>
    </g>
    <g id="Group_15052" data-name="Group 15052" transform="translate(592.488 224.854)">
      <rect id="Rectangle_3803" data-name="Rectangle 3803" width="409.373" height="252.147" rx="8.726" transform="translate(0.643 0.642)" fill="#fff"/>
      <path id="Path_24546" data-name="Path 24546" d="M962.2,460.959H597.591a23.05,23.05,0,0,1-23.022-23.022V230.55a23.05,23.05,0,0,1,23.022-23.022H962.2a23.049,23.049,0,0,1,23.022,23.022V437.937A23.049,23.049,0,0,1,962.2,460.959ZM597.591,208.81a21.767,21.767,0,0,0-21.74,21.74V437.937a21.765,21.765,0,0,0,21.74,21.74H962.2a21.763,21.763,0,0,0,21.74-21.74V230.55a21.765,21.765,0,0,0-21.74-21.74Z" transform="translate(-574.569 -207.528)" fill="#63c2d9"/>
    </g>
    <g id="Group_15053" data-name="Group 15053" transform="translate(598.662 231.028)">
      <rect id="Rectangle_3804" data-name="Rectangle 3804" width="397.03" height="239.804" rx="6.32" transform="translate(0.64 0.64)" fill="#fff"/>
      <path id="Path_24547" data-name="Path 24547" d="M958.437,451.021H593.825a16.87,16.87,0,0,1-16.849-16.851V226.784a16.868,16.868,0,0,1,16.849-16.849H958.437a16.869,16.869,0,0,1,16.851,16.849V434.17A16.871,16.871,0,0,1,958.437,451.021Zm-364.612-239.8a15.584,15.584,0,0,0-15.566,15.566V434.17a15.584,15.584,0,0,0,15.566,15.569H958.437a15.585,15.585,0,0,0,15.569-15.569V226.784a15.584,15.584,0,0,0-15.569-15.566Z" transform="translate(-576.976 -209.935)" fill="#63c2d9"/>
    </g>
    <g id="Group_15054" data-name="Group 15054" transform="translate(563.118 196.456)">
      <rect id="Rectangle_3805" data-name="Rectangle 3805" width="421.716" height="264.49" rx="6.015" transform="translate(3.848 3.848)" fill="#fff"/>
      <path id="Path_24548" data-name="Path 24548" d="M973.251,468.641H582.4a19.3,19.3,0,0,1-19.277-19.277V215.733A19.3,19.3,0,0,1,582.4,196.456H973.251a19.3,19.3,0,0,1,19.277,19.277v233.63A19.3,19.3,0,0,1,973.251,468.641ZM582.4,204.151a11.6,11.6,0,0,0-11.583,11.583v233.63A11.6,11.6,0,0,0,582.4,460.947H973.251a11.593,11.593,0,0,0,11.583-11.583V215.733a11.6,11.6,0,0,0-11.583-11.583Z" transform="translate(-563.118 -196.456)" fill="#fff"/>
    </g>
    <g id="Group_15055" data-name="Group 15055" transform="translate(564.4 197.738)">
      <path id="Path_24556" data-name="Path 24556" d="M6.015,0H415.7a6.015,6.015,0,0,1,6.015,6.015V258.475a6.015,6.015,0,0,1-6.015,6.015H6.015A6.015,6.015,0,0,1,0,258.475V6.015A6.015,6.015,0,0,1,6.015,0Z" transform="translate(2.565 2.566)" fill="#fff"/>
      <path id="Path_24549" data-name="Path 24549" d="M972.469,466.576H581.613a18.014,18.014,0,0,1-17.995-17.995V214.951a18.014,18.014,0,0,1,17.995-18H972.469a18.014,18.014,0,0,1,17.995,18v233.63A18.014,18.014,0,0,1,972.469,466.576ZM581.613,202.086a12.879,12.879,0,0,0-12.865,12.865v233.63a12.879,12.879,0,0,0,12.865,12.865H972.469a12.879,12.879,0,0,0,12.865-12.865V214.951a12.879,12.879,0,0,0-12.865-12.865Z" transform="translate(-563.618 -196.956)" fill="#5bbbe5"/>
    </g>
    <g id="Group_15062" data-name="Group 15062" transform="translate(595.725 227.198)">
      <g id="Group_15056" data-name="Group 15056">
        <rect id="Rectangle_3807" data-name="Rectangle 3807" width="135.556" height="155.027" transform="translate(0.642 0.643)" fill="#fff"/>
        <path id="Path_24550" data-name="Path 24550" d="M712.671,364.752H575.831V208.442h136.84ZM577.114,363.47H711.389V209.724H577.114Z" transform="translate(-575.831 -208.442)" fill="#63c2d9"/>
      </g>
      <rect id="Rectangle_3808" data-name="Rectangle 3808" width="212.421" height="15.589" transform="translate(151.134 0.643)" fill="#5bbbe5"/>
      <rect id="Rectangle_3809" data-name="Rectangle 3809" width="140.457" height="15.589" transform="translate(151.134 29.86)" fill="#5bbbe5"/>
      <rect id="Rectangle_3810" data-name="Rectangle 3810" width="212.421" height="5.763" transform="translate(151.134 82.683)" fill="#213959"/>
      <rect id="Rectangle_3811" data-name="Rectangle 3811" width="212.421" height="5.762" transform="translate(151.134 99.247)" fill="#213959"/>
      <rect id="Rectangle_3812" data-name="Rectangle 3812" width="140.457" height="5.763" transform="translate(151.134 115.811)" fill="#213959"/>
      <rect id="Rectangle_3813" data-name="Rectangle 3813" width="107.912" height="5.763" transform="translate(151.134 132.374)" fill="#213959"/>
      <rect id="Rectangle_3814" data-name="Rectangle 3814" width="362.913" height="5.762" transform="translate(0.642 171.169)" fill="#213959"/>
      <rect id="Rectangle_3815" data-name="Rectangle 3815" width="99.788" height="5.762" transform="translate(0.642 187.732)" fill="#213959"/>
      <rect id="Rectangle_3816" data-name="Rectangle 3816" width="186.573" height="5.762" transform="translate(146.56 187.732)" fill="#213959"/>
      <rect id="Rectangle_3817" data-name="Rectangle 3817" width="362.913" height="5.763" transform="translate(0.642 204.296)" fill="#213959"/>
      <g id="Group_15061" data-name="Group 15061" transform="translate(0.641 8.918)">
        <g id="Group_15060" data-name="Group 15060">
          <g id="Group_15059" data-name="Group 15059">
            <g id="Group_15058" data-name="Group 15058">
              <path id="Path_24551" data-name="Path 24551" d="M711.639,272.7v24.469H576.081V272.361c15.553-6.666,35.8-15.8,44.221-20.183.246-.123.462-.246.677-.369.4-.185.772-.4,1.11-.587,7.036,2.747,16.448,12.5,23.143,11.88,6.666-.646,17.159-10.429,20.675-11.816C670.814,254.183,698.184,266.62,711.639,272.7Z" transform="translate(-576.081 -150.417)" fill="#63c2d9"/>
              <path id="Path_24552" data-name="Path 24552" d="M593.369,253.1l.082,5.676.023,1.829c0,.021.085,3.383.085,3.383l.038,2.819a22.436,22.436,0,0,0,22.435,22.117h.444A22.436,22.436,0,0,0,638.905,267l.069-3.055.064-2.942.041-1.6.169-5.863c0-.041.19-6.2.19-6.2l-46.219-1.3.149,7.041Z" transform="translate(-549.261 -158.529)" fill="#f6b55a"/>
              <path id="Path_24553" data-name="Path 24553" d="M639.439,247.34l-.19,6.158c0,.041-.169,5.9-.169,5.9-2.039,3.491-3.739,6.243-5.337,8.428-4.56,6.222-8.344,7.756-17.046,7.82-8.805.062-12.609-1.408-17.233-7.566a107.607,107.607,0,0,1-6.012-9.31l-.082-5.676c0-.021-.149-7.061-.149-7.061Z" transform="translate(-549.261 -158.529)" fill="#f6b55a" opacity="0.5" style="mix-blend-mode: multiply;isolation: isolate"/>
              <g id="Group_15057" data-name="Group 15057" transform="translate(25.422)">
                <path id="Path_24554" data-name="Path 24554" d="M627.3,214.389c26.695-.354,37.185,13.53,35.649,38.05a63.719,63.719,0,0,1-1.057,8.423c4.6-2.606,8.638,1.947,7.02,8.921-1.141,4.917-3.535,11.519-6.261,12.509-3.265,1.193-4.26-.841-4.447-.905-1.459,7.087-2.049,13.414-4.576,17.174a119.15,119.15,0,0,1-7.438,10.313c-4.863,5.712-8.9,7.128-18.19,7.187-9.395.062-13.45-1.3-18.387-6.953a119.762,119.762,0,0,1-7.569-10.218c-2.575-3.727-3.244-10.047-4.791-17.115-.19.067-1.157,2.113-4.437.964-2.737-.959-5.217-7.53-6.42-12.429-1.708-6.953,2.267-11.557,6.907-9.008a63.775,63.775,0,0,1-1.165-8.41C590.29,228.391,602.481,214.384,627.3,214.389Z" transform="translate(-585.992 -208.064)" fill="#f6b55a"/>
                <path id="Path_24555" data-name="Path 24555" d="M655.032,225.356c-15.217-18.911-46.886-17.013-59.507.38-7.166,9.877-10.2,19.7-6.853,38.709,2.352,1.285,3.883,2.9,5.05,7.623h4.66c-9.318-43.149,2.5-48.147,6.845-45.313,15.469,10.085,27.436,11.067,41.592-.169,4.078-3.237,14.81,1.878,5.879,45.483h4.647c1.118-5.022,2.637-6.746,5.032-8.092C665.481,244.924,662.683,234.864,655.032,225.356Z" transform="translate(-583.925 -211.919)" fill="#213959"/>
              </g>
            </g>
          </g>
        </g>
      </g>
    </g>
  </g>
</svg>
