<svg id="Layer_1" data-name="Layer 1" xmlns="http://www.w3.org/2000/svg" viewBox="0 0 126.9 120.31"><defs><style>.cls-1{fill:none;}.cls-2{fill:#00c52a;}.cls-3{fill:#faa819;}.cls-4{fill:#158560;}.cls-5{fill:#fff;}</style></defs><rect class="cls-1" width="126.9" height="120.31"/><rect class="cls-1" x="23.7" y="23.7" width="79.47" height="72.91"/><path class="cls-2" d="M62.46,60.28l.07-.25A1.82,1.82,0,0,0,62.46,60.28Z"/><path class="cls-3" d="M72.05,43.39v.48a3.33,3.33,0,0,1-1.66,2.88L57.67,54.07a8.64,8.64,0,0,0,0,.88A11.85,11.85,0,1,0,72.05,43.39Z"/><path class="cls-4" d="M59.84,70.64a.9.9,0,0,0,1.37-.77V65.11A13.28,13.28,0,0,1,56.38,55v-.14L44.71,61.53Z"/><path class="cls-2" d="M43.67,60.77V40.51a2.15,2.15,0,0,1,1-1.8L67.57,24.05a2.14,2.14,0,0,1,3.3,1.81v18a2.15,2.15,0,0,1-1.07,1.86Z"/><path class="cls-5" d="M76.84,49.86a.42.42,0,0,0-.35-.19H72.74V48.37a.28.28,0,0,0-.28-.27h-2a.27.27,0,0,0-.27.27v1.31H70a.45.45,0,0,0-.4.27L69,51.64a.43.43,0,0,0,.4.58h.83v1.3H68.55a.42.42,0,0,0-.39.28l-.64,1.69a.42.42,0,0,0,0,.39.44.44,0,0,0,.35.18H70.2V58.9a.37.37,0,0,1-.37.37H66.19a1.6,1.6,0,0,1-.1-3.2.43.43,0,0,0,.4-.28l.64-1.69a.42.42,0,0,0-.4-.58h-.64a4.15,4.15,0,0,0,.13,8.29h6.09a.42.42,0,0,0,.43-.42V56.06h1.65a.43.43,0,0,0,.4-.27l.64-1.69a.44.44,0,0,0-.05-.4.44.44,0,0,0-.35-.18H72.74v-1.3h3.11a.42.42,0,0,0,.39-.28l.65-1.69a.42.42,0,0,0,0-.39"/><path class="cls-2" d="M97,75.32a1.72,1.72,0,0,0-1.47-.57,2.62,2.62,0,0,0-1.76.56,2.5,2.5,0,0,0-.85,1.45,2.94,2.94,0,0,0-.06.47,1.4,1.4,0,0,0,.3.91,1.88,1.88,0,0,0,1.56.58,2.51,2.51,0,0,0,1.71-.58,2.46,2.46,0,0,0,.75-1.38,2.58,2.58,0,0,0,.06-.58A1.39,1.39,0,0,0,97,75.32Z"/><path class="cls-2" d="M44.09,74.81a2,2,0,0,0-.34,0c-.91,0-1.51.38-1.81,2-.25,1.44-.55,2.9-.91,4.37l-.32,1.33c-.29-.25-.53-.46-.74-.61a4.51,4.51,0,0,0-.69-.42A5.16,5.16,0,0,0,37,81a8.41,8.41,0,0,0-3,.56,9.16,9.16,0,0,0-2.66,1.6,10.06,10.06,0,0,0-2,2.49,10.87,10.87,0,0,0-1.23,3.13,12.72,12.72,0,0,0-.32,2.67,6.64,6.64,0,0,0,.59,2.92A3.91,3.91,0,0,0,29.77,96a4.13,4.13,0,0,0,2.21.57,5.79,5.79,0,0,0,3-.92,10.8,10.8,0,0,0,2.42-2,9.52,9.52,0,0,0,1.43-2l-.4,1.77a4.85,4.85,0,0,0-.1,1,2.79,2.79,0,0,0,.19,1,1.67,1.67,0,0,0,.62.83,2,2,0,0,0,1.15.32c.26,0,1.7,0,1.73-1a1.05,1.05,0,0,0-.4-.78.86.86,0,0,1-.23-.64,6.74,6.74,0,0,1,.21-1.4S45.13,78,45.26,77.5C45.64,75.65,45.07,75,44.09,74.81Zm-5.74,15.3a11.94,11.94,0,0,1-2.44,3,6,6,0,0,1-1.29.89,2.59,2.59,0,0,1-1.16.31,2,2,0,0,1-2.14-1.52,4.51,4.51,0,0,1-.18-1.37,11.66,11.66,0,0,1,.35-2.57,7.92,7.92,0,0,1,.83-2.17,8,8,0,0,1,1.33-1.78,6.47,6.47,0,0,1,1.66-1.19,4,4,0,0,1,1.78-.43,3.54,3.54,0,0,1,1.34.2,3.13,3.13,0,0,1,1.69,1.47l-.25,1.29A12.58,12.58,0,0,1,38.35,90.11Z"/><path class="cls-2" d="M59.5,82.87a4.37,4.37,0,0,0-2.18-1.43A8.11,8.11,0,0,0,54.71,81a10.65,10.65,0,0,0-3.11.46,9.28,9.28,0,0,0-2.82,1.39,9.63,9.63,0,0,0-2.4,2.52,10.72,10.72,0,0,0-1.47,3.52,9.72,9.72,0,0,0-.27,2.2,5.12,5.12,0,0,0,1.24,3.55A5,5,0,0,0,48,96.06a9,9,0,0,0,3,.46,8,8,0,0,0,3.06-.69,12,12,0,0,0,1.24-.61l.34-.21a.76.76,0,0,0,.3-.23.73.73,0,0,0-.57-1.17.64.64,0,0,0-.34.09h0c-.23.12-.46.24-.72.35a6.88,6.88,0,0,1-2.83.71,3.93,3.93,0,0,1-1.55-.3,2.62,2.62,0,0,1-1.13-.93,4,4,0,0,1-.7-2.46,8.49,8.49,0,0,1,.16-1.55l3.34,0a13.75,13.75,0,0,0,5.61-1,4.39,4.39,0,0,0,2.68-2.88,4.59,4.59,0,0,0,.12-1A2.94,2.94,0,0,0,59.5,82.87Zm-2.76,2.55a3,3,0,0,1-2,2,10.18,10.18,0,0,1-3.29.42l-2.71,0a8.93,8.93,0,0,1,1-2.18A7.08,7.08,0,0,1,51.18,84a5.52,5.52,0,0,1,1.58-.92,4.66,4.66,0,0,1,1.64-.31,4.14,4.14,0,0,1,1.08.16,2.2,2.2,0,0,1,.85.43,1.58,1.58,0,0,1,.54,1.24A2.94,2.94,0,0,1,56.74,85.42Z"/><path class="cls-2" d="M66.05,83.11a4.32,4.32,0,0,1,1.84-.34,3.48,3.48,0,0,1,1.29.21,3.94,3.94,0,0,1,.46.23l.1.06a1,1,0,0,0,.46.12,1,1,0,0,0,1-1,.94.94,0,0,0-.45-.8.62.62,0,0,0-.22-.1,6,6,0,0,0-2.39-.5,10.43,10.43,0,0,0-2.22.23,5.57,5.57,0,0,0-3.48,2.13,4.89,4.89,0,0,0-.76,1.45,4.61,4.61,0,0,0-.27,1.48,2.88,2.88,0,0,0,.07.59A3.74,3.74,0,0,0,62.87,89a24.82,24.82,0,0,0,2.22,1.49,6.85,6.85,0,0,1,1,.68,1.79,1.79,0,0,1,.75,1.31,1.27,1.27,0,0,1,0,.32,2.23,2.23,0,0,1-1.19,1.53,4.4,4.4,0,0,1-2.05.45,5.17,5.17,0,0,1-1.58-.25,8.47,8.47,0,0,1-1.49-.65h0a1.14,1.14,0,0,0-.48-.12,1,1,0,0,0-1,1,1,1,0,0,0,.58.92h0l0,0,.2.1a8.27,8.27,0,0,0,3.27.72,10.8,10.8,0,0,0,2.56-.28,6.15,6.15,0,0,0,3.78-2.35,5.81,5.81,0,0,0,.79-1.55,5.14,5.14,0,0,0,.28-1.54,3.08,3.08,0,0,0-.07-.61,4,4,0,0,0-1.47-2.09,22.58,22.58,0,0,0-2.26-1.47,9.53,9.53,0,0,1-1-.65,3,3,0,0,1-.59-.6,1.14,1.14,0,0,1-.2-.63.93.93,0,0,1,0-.27A2,2,0,0,1,66.05,83.11Z"/><path class="cls-2" d="M92.09,82.72a.78.78,0,0,0,0,.22,1.43,1.43,0,0,1,0-.22Z"/><path class="cls-2" d="M92.12,82.59l0,.13h0Z"/><path class="cls-2" d="M95.46,83.08a1.71,1.71,0,0,0-3.34-.49L89.75,93.46a3.68,3.68,0,0,0-.1.82A2.49,2.49,0,0,0,90,95.61a1.83,1.83,0,0,0,.77.71,2.72,2.72,0,0,0,1.23.26c.26,0,1.55.07,1.72-1a.87.87,0,0,0-.47-.81h0a.52.52,0,0,1-.18-.31,1.17,1.17,0,0,1,0-.32,5.62,5.62,0,0,1,.17-1.21l1.15-5.18c.25-1.07.45-1.93.61-2.57s.3-1.18.44-1.68h0A2,2,0,0,0,95.46,83.08Z"/><path class="cls-2" d="M87.65,87a8.3,8.3,0,0,0,.24-1.9,4.86,4.86,0,0,0-.51-2.31,3.2,3.2,0,0,0-1.25-1.3A3.8,3.8,0,0,0,84.18,81a6.15,6.15,0,0,0-3.77,1.31A13.77,13.77,0,0,0,77.27,86l.29-1.06.39-1.5.47-1.77.09-.33c.19-.68.32-1.18.41-1.52l.63-2.31.06-.26c.46-1.89-.42-2.42-1.08-2.52a3.35,3.35,0,0,0-.73,0c-1.23.24-1.45,1.69-1.45,1.69-.13.57-.63,2.65-1,4.52L72.09,94.51a1.55,1.55,0,0,0,.28,1.25,1.68,1.68,0,0,0,1.12.73,1.64,1.64,0,0,0,.94-.13,1.68,1.68,0,0,0,1-1.26s0,0,0-.06v0c.09-.56.2-1.17.34-1.84s.46-1.84.62-2.52a7.82,7.82,0,0,1,.46-1.4,14.4,14.4,0,0,1,.77-1.59,13.2,13.2,0,0,1,2.22-3,4,4,0,0,1,2.66-1.37,1.88,1.88,0,0,1,1.5.58,2.58,2.58,0,0,1,.5,1.72,8.35,8.35,0,0,1-.24,1.79l-1.39,6a4,4,0,0,0-.13,1,2.22,2.22,0,0,0,.48,1.47,2,2,0,0,0,.82.58,2.82,2.82,0,0,0,1,.22c.3,0,1.65-.08,1.73-1a.83.83,0,0,0-.39-.75.66.66,0,0,1-.31-.65A8,8,0,0,1,86.28,93Z"/><path d="M99.4,74.67h2.83v.54h-1.08v3.52h-.66V75.21H99.4Z"/><path d="M102.9,74.67h.72L105,77.85l1.42-3.18h.71v4.06h-.67V76l-1.23,2.78h-.46L103.57,76v2.78h-.67Z"/></svg>