<svg width="212" height="61" viewBox="0 0 212 61" fill="none" xmlns="http://www.w3.org/2000/svg">
<g clip-path="url(#clip0_223:1509)">
<path d="M71.4495 15.2141H87.1059C98.3753 15.2141 106.105 22.0082 106.105 32.4447C106.105 42.8776 98.3789 49.6718 87.1059 49.6718H71.4495V15.2141ZM86.7142 43.1282C93.5577 43.1282 98.033 39.0412 98.033 32.4482C98.033 25.8518 93.5577 21.7682 86.7142 21.7682H79.4259V43.1318H86.7142V43.1282Z" fill="#282C35"/>
<path d="M137.389 38.5998H117.353C118.091 41.8998 120.896 43.915 124.931 43.915C127.736 43.915 129.755 43.0786 131.576 41.3527L135.664 45.7856C133.204 48.5915 129.512 50.0668 124.733 50.0668C115.578 50.0668 109.624 44.3068 109.624 36.4327C109.624 28.5092 115.68 22.7986 123.752 22.7986C131.527 22.7986 137.531 28.0186 137.531 36.535C137.531 37.1174 137.435 37.9574 137.389 38.5998ZM117.254 34.1174H130.295C129.755 30.7715 127.246 28.608 123.798 28.608C120.307 28.6045 117.798 30.7221 117.254 34.1174Z" fill="#282C35"/>
<path d="M140.111 47.2117L142.669 41.6953C145.034 43.2235 148.627 44.2576 151.878 44.2576C155.421 44.2576 156.752 43.3223 156.752 41.8435C156.752 37.5165 140.753 41.9423 140.753 31.3576C140.753 26.3388 145.281 22.7917 153.011 22.7917C156.653 22.7917 160.691 23.6282 163.204 25.107L160.641 30.5706C158.033 29.0917 155.421 28.6012 153.011 28.6012C149.566 28.6012 148.087 29.6847 148.087 31.0612C148.087 35.5894 164.086 31.2094 164.086 41.6423C164.086 46.5659 159.505 50.06 151.581 50.06C147.099 50.067 142.571 48.8353 140.111 47.2117Z" fill="#282C35"/>
<path d="M195.893 34.5093V49.6716H188.213V35.6916C188.213 31.4105 186.243 29.4375 182.845 29.4375C179.153 29.4375 176.495 31.7034 176.495 36.5775V49.6716H168.815V13.1458H176.495V25.9434C178.563 23.8787 181.518 22.7916 184.913 22.7916C191.167 22.7952 195.893 26.4375 195.893 34.5093Z" fill="#282C35"/>
<path d="M201.918 15.214C201.918 12.7999 203.838 10.9329 206.693 10.9329C209.552 10.9329 211.468 12.7046 211.468 15.0658C211.468 17.6282 209.552 19.4987 206.693 19.4987C203.838 19.4987 201.918 17.6282 201.918 15.214ZM202.853 23.1905H210.533V49.6717H202.853V23.1905Z" fill="#282C35"/>
<path d="M57.9671 60.5H2.03294C0.910588 60.5 0 59.5894 0 58.4671V2.53294C0 1.41059 0.910588 0.5 2.03294 0.5H57.9635C59.0859 0.5 59.9965 1.41059 59.9965 2.53294V58.4635C60 59.5894 59.0894 60.5 57.9671 60.5Z" fill="#F1F1F1"/>
<path d="M48.5506 21.02C48.5506 29.0741 42.0212 35.6035 33.967 35.6035V7.53764C33.967 6.91294 34.507 6.42941 35.1317 6.47882C42.1447 7.03294 47.7635 12.5459 48.4764 19.5165C48.5259 20.0071 48.5506 20.5118 48.5506 21.02Z" fill="url(#paint0_linear_223:1509)"/>
<g opacity="0.1">
<path opacity="0.1" d="M49.1152 17.5154C49.1152 17.5154 45.0882 26.2754 31.7188 21.2954C31.7188 25.3224 31.7188 26.526 31.7188 26.526H49.1152V17.5154Z" fill="black"/>
</g>
<path d="M48.5505 21.02V36.0906H48.5117V44.36C48.5117 49.9965 43.9411 54.5671 38.3046 54.5671H25.7152C18.9987 54.5671 13.327 50.113 11.4917 43.9965C11.3329 43.4635 11.7423 42.9306 12.2999 42.9306H19.634C20.587 42.9306 21.4482 42.5459 22.0729 41.9212C22.7505 41.2471 23.1458 40.2906 23.0752 39.2424C22.9517 37.4177 21.3599 36.0377 19.5317 36.0377H12.2964C11.7387 36.0377 11.3293 35.5047 11.4882 34.9718C13.327 28.8588 18.9987 24.4012 25.7117 24.4012H29.8376V24.3977H39.5152C40.8529 24.3977 42.1799 24.1259 43.4046 23.5753C44.9293 22.8906 46.874 21.6659 48.4764 19.52C48.5258 20.0071 48.5505 20.5118 48.5505 21.02Z" fill="url(#paint1_linear_223:1509)"/>
<path d="M19.7577 40.7458C20.4555 40.7458 21.0212 40.1801 21.0212 39.4823C21.0212 38.7844 20.4555 38.2188 19.7577 38.2188C19.0598 38.2188 18.4941 38.7844 18.4941 39.4823C18.4941 40.1801 19.0598 40.7458 19.7577 40.7458Z" fill="url(#paint2_linear_223:1509)"/>
<mask id="mask0_223:1509" style="mask-type:alpha" maskUnits="userSpaceOnUse" x="11" y="19" width="38" height="36">
<path d="M48.5505 21.02V36.0906H48.5117V44.36C48.5117 49.9965 43.9411 54.5671 38.3046 54.5671H25.7152C18.9987 54.5671 13.327 50.113 11.4917 43.9965C11.3329 43.4635 11.7423 42.9306 12.2999 42.9306H19.634C20.587 42.9306 21.4482 42.5459 22.0729 41.9212C22.7505 41.2471 23.1458 40.2906 23.0752 39.2424C22.9517 37.4177 21.3599 36.0377 19.5317 36.0377H12.2964C11.7387 36.0377 11.3293 35.5047 11.4882 34.9718C13.327 28.8588 18.9987 24.4012 25.7117 24.4012H29.8376V24.3977H39.5152C40.8529 24.3977 42.1799 24.1259 43.4046 23.5753C44.9293 22.8906 46.874 21.6659 48.4764 19.52C48.5258 20.0071 48.5505 20.5118 48.5505 21.02Z" fill="url(#paint3_linear_223:1509)"/>
</mask>
<g mask="url(#mask0_223:1509)">
<path opacity="0.06" d="M48.5504 19.3718H44.2021V54.5636H48.5504V19.3718Z" fill="#223D78"/>
</g>
</g>
<defs>
<linearGradient id="paint0_linear_223:1509" x1="33.9657" y1="21.0393" x2="48.5491" y2="21.0393" gradientUnits="userSpaceOnUse">
<stop stop-color="#FFDB61"/>
<stop offset="1" stop-color="#FEB83E"/>
</linearGradient>
<linearGradient id="paint1_linear_223:1509" x1="14.4826" y1="47.895" x2="48.4374" y2="31.0718" gradientUnits="userSpaceOnUse">
<stop stop-color="#34A853"/>
<stop offset="1" stop-color="#259142"/>
</linearGradient>
<linearGradient id="paint2_linear_223:1509" x1="18.4964" y1="39.4823" x2="21.0214" y2="39.4823" gradientUnits="userSpaceOnUse">
<stop stop-color="#FFDB61"/>
<stop offset="1" stop-color="#FEB83E"/>
</linearGradient>
<linearGradient id="paint3_linear_223:1509" x1="14.4826" y1="47.895" x2="48.4374" y2="31.0718" gradientUnits="userSpaceOnUse">
<stop stop-color="#34A853"/>
<stop offset="1" stop-color="#259142"/>
</linearGradient>
<clipPath id="clip0_223:1509">
<rect width="211.465" height="60" fill="white" transform="translate(0 0.5)"/>
</clipPath>
</defs>
</svg>
