<svg width="60" height="60" viewBox="0 0 60 60" fill="none" xmlns="http://www.w3.org/2000/svg">
<rect width="60" height="60" rx="30" fill="#00ACEE"/>
<path d="M40 23.8C39.2483 24.1261 38.4534 24.3416 37.64 24.44C38.4982 23.9273 39.1413 23.1207 39.45 22.17C38.6436 22.65 37.7608 22.9883 36.84 23.17C36.2245 22.5025 35.405 22.0583 34.5098 21.9068C33.6147 21.7554 32.6945 21.9053 31.8938 22.3332C31.093 22.761 30.4569 23.4425 30.0852 24.2708C29.7135 25.0991 29.6273 26.0274 29.84 26.91C28.2094 26.8275 26.6144 26.4029 25.1587 25.6638C23.7029 24.9247 22.4188 23.8877 21.39 22.62C21.0291 23.2501 20.8395 23.9638 20.84 24.69C20.8387 25.3643 21.0042 26.0286 21.3218 26.6235C21.6393 27.2185 22.099 27.7257 22.66 28.1C22.008 28.0822 21.3699 27.9073 20.8 27.59V27.64C20.8049 28.5849 21.136 29.4991 21.7373 30.2279C22.3386 30.9568 23.1733 31.4556 24.1 31.64C23.7433 31.7485 23.3729 31.8058 23 31.81C22.7419 31.807 22.4844 31.7835 22.23 31.74C22.4939 32.5528 23.0046 33.2631 23.6911 33.7721C24.3775 34.2811 25.2056 34.5635 26.06 34.58C24.6172 35.7152 22.8359 36.3348 21 36.34C20.6657 36.3411 20.3317 36.321 20 36.28C21.8744 37.4902 24.0588 38.1327 26.29 38.13C27.8297 38.146 29.3571 37.855 30.7831 37.274C32.2091 36.6931 33.505 35.8338 34.5952 34.7465C35.6854 33.6591 36.548 32.3654 37.1326 30.9409C37.7172 29.5164 38.012 27.9897 38 26.45C38 26.28 38 26.1 38 25.92C38.7847 25.3348 39.4615 24.6174 40 23.8Z" fill="white"/>
</svg>
