<svg width="60" height="60" viewBox="0 0 60 60" fill="none" xmlns="http://www.w3.org/2000/svg">
<rect width="60" height="60" rx="30" fill="#E8F4EB"/>
<path d="M35.9999 22.48C34.4086 20.8887 32.2504 19.9948 29.9999 19.9948C27.7495 19.9948 25.5912 20.8887 23.9999 22.48C22.4086 24.0713 21.5146 26.2296 21.5146 28.48C21.5146 30.7305 22.4086 32.8887 23.9999 34.48L29.2699 39.76C29.3629 39.8538 29.4735 39.9282 29.5954 39.9789C29.7172 40.0297 29.8479 40.0558 29.9799 40.0558C30.1119 40.0558 30.2426 40.0297 30.3645 39.9789C30.4864 39.9282 30.597 39.8538 30.6899 39.76L35.9999 34.43C37.5846 32.8454 38.4748 30.6961 38.4748 28.455C38.4748 26.214 37.5846 24.0647 35.9999 22.48ZM34.5699 33L29.9999 37.59L25.4299 33C24.5271 32.0963 23.9124 30.9453 23.6636 29.6923C23.4148 28.4394 23.5431 27.1408 24.0322 25.9607C24.5213 24.7806 25.3493 23.7721 26.4116 23.0625C27.4738 22.3529 28.7225 21.9742 29.9999 21.9742C31.2773 21.9742 32.5261 22.3529 33.5883 23.0625C34.6505 23.7721 35.4785 24.7806 35.9676 25.9607C36.4567 27.1408 36.585 28.4394 36.3362 29.6923C36.0875 30.9453 35.4728 32.0963 34.5699 33ZM26.9999 25.41C26.1926 26.2198 25.7393 27.3166 25.7393 28.46C25.7393 29.6035 26.1926 30.7003 26.9999 31.51C27.5997 32.1108 28.3635 32.5211 29.1956 32.6894C30.0276 32.8578 30.8909 32.7766 31.677 32.4562C32.4631 32.1358 33.1371 31.5903 33.6144 30.8883C34.0917 30.1863 34.3511 29.3589 34.3599 28.51C34.3644 27.9432 34.2553 27.3813 34.0388 26.8574C33.8224 26.3335 33.5032 25.8584 33.0999 25.46C32.7036 25.0546 32.231 24.7316 31.7094 24.5095C31.1877 24.2874 30.6273 24.1707 30.0603 24.1661C29.4934 24.1614 28.9311 24.2689 28.4059 24.4824C27.8807 24.6959 27.4029 25.0112 26.9999 25.41ZM31.6899 30.09C31.311 30.4748 30.8101 30.7159 30.2731 30.7723C29.736 30.8286 29.196 30.6967 28.7454 30.399C28.2949 30.1012 27.9617 29.6563 27.8029 29.1401C27.6441 28.624 27.6696 28.0687 27.8749 27.5692C28.0802 27.0697 28.4526 26.657 28.9285 26.4018C29.4044 26.1465 29.9542 26.0644 30.4839 26.1696C31.0135 26.2749 31.4902 26.5608 31.8324 26.9786C32.1746 27.3963 32.3611 27.92 32.3599 28.46C32.3454 29.0773 32.0864 29.6636 31.6399 30.09H31.6899Z" fill="#34A853"/>
</svg>
