<svg width="60" height="60" viewBox="0 0 60 60" fill="none" xmlns="http://www.w3.org/2000/svg">
<rect width="60" height="60" rx="30" fill="#0E76A8"/>
<path d="M31 39H27V27H31V29C31.8526 27.9153 33.1456 27.2686 34.525 27.237C37.0056 27.2508 39.0072 29.2694 39 31.75V39H35V32.25C34.84 31.1326 33.8818 30.3036 32.753 30.306C32.2593 30.3216 31.7932 30.5378 31.4624 30.9046C31.1316 31.2715 30.9646 31.7573 31 32.25V39ZM25 39H21V27H25V39ZM23 25C21.8954 25 21 24.1046 21 23C21 21.8954 21.8954 21 23 21C24.1046 21 25 21.8954 25 23C25 23.5304 24.7893 24.0391 24.4142 24.4142C24.0391 24.7893 23.5304 25 23 25Z" fill="white"/>
</svg>
