<svg width="60" height="60" viewBox="0 0 60 60" fill="none" xmlns="http://www.w3.org/2000/svg">
<path d="M0 30C0 13.4315 13.4315 0 30 0C46.5685 0 60 13.4315 60 30C60 46.5685 46.5685 60 30 60C13.4315 60 0 46.5685 0 30Z" fill="#E8F4EB"/>
<path d="M37.5211 31.0289C37.3003 31.0289 37.0694 30.9586 36.8487 30.9084C36.4015 30.8099 35.9621 30.6791 35.5339 30.517C35.0683 30.3476 34.5566 30.3564 34.0971 30.5417C33.6376 30.727 33.2629 31.0757 33.045 31.5206L32.8242 31.9722C31.8467 31.4285 30.9485 30.7531 30.1546 29.965C29.3666 29.1712 28.6912 28.273 28.1474 27.2955L28.5689 27.0144C29.0139 26.7966 29.3626 26.4219 29.5478 25.9624C29.7331 25.5029 29.7419 24.9911 29.5725 24.5255C29.4132 24.0964 29.2824 23.6572 29.1811 23.2108C29.1309 22.99 29.0908 22.7592 29.0607 22.5283C28.9388 21.8214 28.5686 21.1812 28.0166 20.7231C27.4646 20.265 26.7672 20.0189 26.0499 20.0294H23.0391C22.6066 20.0253 22.1782 20.1145 21.7833 20.2908C21.3883 20.4672 21.036 20.7266 20.7503 21.0513C20.4646 21.3761 20.2522 21.7586 20.1276 22.1728C20.003 22.587 19.9691 23.0232 20.0283 23.4517C20.5629 27.6561 22.4831 31.5627 25.4855 34.5542C28.4879 37.5457 32.4014 39.4516 36.6078 39.971H36.9892C37.7292 39.9721 38.4438 39.7005 38.9964 39.2082C39.3139 38.9243 39.5675 38.5761 39.7405 38.1869C39.9135 37.7976 40.0019 37.3761 40 36.9501V33.9393C39.9877 33.2422 39.7338 32.5709 39.2817 32.0402C38.8296 31.5094 38.2073 31.1519 37.5211 31.0289ZM38.0229 37.0505C38.0227 37.193 37.9922 37.3338 37.9333 37.4636C37.8745 37.5934 37.7887 37.7091 37.6816 37.8032C37.5695 37.9 37.4384 37.9723 37.2967 38.0155C37.1549 38.0587 37.0058 38.0719 36.8587 38.0541C33.1001 37.5722 29.6089 35.8527 26.9358 33.1668C24.2627 30.481 22.5598 26.9817 22.0957 23.2208C22.0797 23.0738 22.0937 22.9251 22.1368 22.7837C22.18 22.6422 22.2513 22.511 22.3466 22.3979C22.4406 22.2908 22.5564 22.205 22.6862 22.1462C22.816 22.0874 22.9568 22.0568 23.0993 22.0566H26.1101C26.3435 22.0515 26.5714 22.1278 26.7546 22.2725C26.9377 22.4172 27.0647 22.6212 27.1137 22.8495C27.1538 23.1238 27.204 23.3948 27.2642 23.6624C27.3802 24.1915 27.5345 24.7114 27.7259 25.218L26.3209 25.8703C26.2007 25.9255 26.0927 26.0038 26.0029 26.1008C25.9131 26.1978 25.8433 26.3115 25.7977 26.4356C25.752 26.5596 25.7312 26.6914 25.7366 26.8235C25.742 26.9555 25.7734 27.0852 25.8291 27.2051C27.2735 30.299 29.7605 32.786 32.8543 34.2304C33.0987 34.3307 33.3727 34.3307 33.6171 34.2304C33.7422 34.1856 33.8572 34.1164 33.9554 34.0268C34.0536 33.9372 34.1331 33.829 34.1891 33.7085L34.8113 32.3034C35.3302 32.489 35.8597 32.6431 36.397 32.7651C36.6647 32.8253 36.9356 32.8755 37.21 32.9156C37.4382 32.9646 37.6422 33.0916 37.787 33.2748C37.9317 33.458 38.008 33.6859 38.0028 33.9192L38.0229 37.0505Z" fill="#34A853"/>
</svg>
