<svg width="60" height="60" viewBox="0 0 60 60" fill="none" xmlns="http://www.w3.org/2000/svg">
<rect width="60" height="60" rx="30" fill="#FF0000"/>
<path d="M41 27.71C41.0495 26.2786 40.7365 24.858 40.09 23.58C39.6514 23.0556 39.0427 22.7017 38.37 22.58C35.5875 22.3275 32.7936 22.224 30 22.27C27.2167 22.2219 24.4327 22.3221 21.66 22.57C21.1118 22.6697 20.6045 22.9268 20.2 23.31C19.3 24.14 19.2 25.56 19.1 26.76C18.9549 28.9175 18.9549 31.0824 19.1 33.24C19.129 33.9154 19.2295 34.5858 19.4 35.24C19.5206 35.745 19.7645 36.2123 20.11 36.6C20.5173 37.0034 21.0364 37.2752 21.6 37.38C23.7559 37.6461 25.9282 37.7564 28.1 37.71C31.6 37.76 34.67 37.71 38.3 37.43C38.8775 37.3316 39.4112 37.0595 39.83 36.65C40.11 36.3699 40.3191 36.0271 40.44 35.65C40.7977 34.5526 40.9733 33.4041 40.96 32.25C41 31.69 41 28.31 41 27.71ZM27.74 32.85V26.66L33.66 29.77C32 30.69 29.81 31.73 27.74 32.85Z" fill="white"/>
</svg>
